<?xml version="1.0" encoding="UTF-8"?> <svg xmlns="http://www.w3.org/2000/svg" xmlns:xlink="http://www.w3.org/1999/xlink" width="266px" height="60px" viewBox="0 0 266 60" version="1.1"><title>Branding / Logo Color</title><defs><polygon id="path-1" points="0 60 266 60 266 0 0 0"></polygon></defs><g id="Homepage-Round-3" stroke="none" stroke-width="1" fill="none" fill-rule="evenodd"><g id="Global-Gig-Homepage---Round-3B" transform="translate(-180.000000, -3621.000000)"><g id="Footer" transform="translate(0.000000, 3501.000000)"><g id="Group-13" transform="translate(180.000000, 120.000000)"><path d="M80.157774,23.314444 C78.2798745,23.314444 76.7286673,23.9437836 75.5055212,25.2034203 C74.2811433,26.4626466 73.6695018,28.0459828 73.6695018,29.9528816 C73.6695018,31.9325649 74.2955139,33.5568082 75.5505492,34.8226015 C76.8024366,36.0885317 78.3751312,36.7229333 80.2674014,36.7229333 C82.1166965,36.7229333 83.6421734,36.1038547 84.843832,34.8666553 C86.0456275,33.6295926 86.6460462,32.0063071 86.6460462,29.9959777 C86.6460462,28.0162944 86.0415216,26.4088792 84.8337042,25.1711325 C83.6236969,23.9329753 82.0653728,23.314444 80.157774,23.314444 L80.157774,23.314444 Z M86.3417994,18.3577111 L92.2828927,18.3577111 L92.2828927,38.7102781 C92.2828927,42.7279269 91.4745788,45.6836338 89.8568562,47.5756199 C87.6868906,50.1375791 84.418735,51.4192427 80.0492415,51.4192427 C77.7194198,51.4192427 75.7595392,51.1278312 74.1726108,50.5456921 C72.5856824,49.9630058 71.2455182,49.1068304 70.1523921,47.9796286 C69.062277,46.8516058 68.2539631,45.4797825 67.7284085,43.8626535 L74.3046838,43.8626535 C74.8866259,44.5330369 75.6355412,45.0378767 76.5545774,45.3804563 C77.4715606,45.7224886 78.5564749,45.8940521 79.8083623,45.8940521 C81.4096614,45.8940521 82.6995968,45.6466943 83.6759786,45.1525259 C84.6512655,44.6564422 85.3407822,44.0153367 85.7402858,43.2297568 C86.1399262,42.4437665 86.3417994,41.0898656 86.3417994,39.1686014 C85.2916483,40.2163149 84.1923633,40.9694702 83.0417547,41.4277935 C81.8922409,41.8870746 80.5871138,42.1165099 79.1322583,42.1165099 C75.9419778,42.1165099 73.2474158,40.9664603 71.0488458,38.6662243 C68.8502759,36.3659883 67.7509909,33.4554298 67.7509909,29.931402 C67.7509909,26.1609741 68.9147385,23.1326196 71.2455182,20.8462017 C73.3581381,18.7805999 75.8762835,17.7461573 78.8033761,17.7461573 C80.1731027,17.7461573 81.465091,17.997209 82.6811202,18.4999966 C83.8982444,19.0022369 85.1164635,19.8277662 86.3417994,20.9778158 L86.3417994,18.3577111 Z" id="Fill-1" fill="#002D70"></path><mask id="mask-2" fill="white"><use xlink:href="#path-1"></use></mask><g id="Clip-4"></g><polygon id="Fill-3" fill="#002D70" mask="url(#mask-2)" points="97.2096656 42.1164962 103.174436 42.1164962 103.174436 9.18548415 97.2096656 9.18548415"></polygon><path d="M233.48309,42.116633 L236.542256,42.116633 L236.542256,18.3576974 L233.48309,18.3576974 L233.48309,42.116633 Z M235.00145,8.57406711 C235.699042,8.57406711 236.293302,8.82183535 236.785051,9.31600369 C237.276801,9.81112973 237.523702,10.4088655 237.523702,11.1067483 C237.523702,11.7919075 237.276801,12.3812977 236.785051,12.8764237 C236.293302,13.3711393 235.699042,13.6179499 235.00145,13.6179499 C234.321104,13.6179499 233.733003,13.3711393 233.241253,12.8764237 C232.746493,12.3812977 232.499455,11.7919075 232.499455,11.1067483 C232.499455,10.4088655 232.746493,9.81112973 233.241253,9.31600369 C233.733003,8.82183535 234.321104,8.57406711 235.00145,8.57406711 L235.00145,8.57406711 Z" id="Fill-5" fill="#002D70" mask="url(#mask-2)"></path><path d="M253.920032,20.6931765 C252.186524,20.6931765 250.578108,21.1125081 249.092595,21.9492561 C247.606945,22.7869617 246.441145,23.9437152 245.597931,25.4211581 C244.751706,26.8988747 244.330578,28.4975339 244.330578,30.2150836 C244.330578,32.8204125 245.203491,34.9752163 246.952329,36.6793583 C248.698018,38.3825427 250.963241,39.2340664 253.745806,39.2340664 C256.556154,39.2340664 258.817134,38.3886993 260.527102,36.7009748 C262.240081,35.0121558 263.096571,32.7927763 263.096571,30.0399631 C263.096571,28.2497657 262.703089,26.6520642 261.916263,25.246448 C261.128479,23.8417895 260.014823,22.7327838 258.574338,21.9165578 C257.1318,21.1012895 255.58073,20.6931765 253.920032,20.6931765 L253.920032,20.6931765 Z M262.941916,18.3576427 L265.999986,18.3576427 L265.999986,37.2898177 C265.999986,40.6243595 265.71011,43.0618189 265.127073,44.6061634 C264.324918,46.7891507 262.935757,48.4718131 260.954252,49.6500462 C258.973979,50.829921 256.591875,51.4193111 253.811363,51.4193111 C251.771691,51.4193111 249.941831,51.1309095 248.316991,50.5543797 C246.692152,49.9773027 245.371559,49.2034887 244.351107,48.2315696 C243.332708,47.2607449 242.392185,45.8407634 241.533642,43.9732668 L244.854079,43.9732668 C245.758745,45.544837 246.924682,46.709252 248.354902,47.4670589 C249.78307,48.2224031 251.553395,48.6023327 253.667931,48.6023327 C255.753862,48.6023327 257.515017,48.2126894 258.950301,47.4379177 C260.387775,46.6616411 261.411238,45.6861648 262.024932,44.5099839 C262.635479,43.3347607 262.941916,41.4385334 262.941916,38.8177446 L262.941916,37.5960051 C261.790349,39.0523788 260.382574,40.1701406 258.720919,40.9475117 C257.060084,41.7267982 255.29496,42.1165783 253.430336,42.1165783 C251.243947,42.1165783 249.187852,41.5747991 247.261639,40.490146 C245.340765,39.4056299 243.852104,37.9451517 242.80209,36.1110374 C241.752897,34.277744 241.228437,32.261258 241.228437,30.0624004 C241.228437,27.8636796 241.774384,25.8143585 242.8697,23.9151213 C243.961732,22.0147895 245.473933,20.5123097 247.406167,19.4053562 C249.336348,18.3003181 251.376157,17.7462257 253.518476,17.7462257 C255.29496,17.7462257 256.953605,18.113842 258.492357,18.8492116 C260.029194,19.5840339 261.513749,20.7960598 262.941916,22.4848787 L262.941916,18.3576427 Z" id="Fill-6" fill="#002D70" mask="url(#mask-2)"></path><path d="M38.8750659,50.8319321 C38.1015153,49.6367343 36.9121744,48.7391046 35.5096006,48.3407053 C35.4255667,45.6313986 34.9778872,43.0182714 34.2228131,40.5522181 C32.539533,35.0586312 29.3143525,30.299593 25.0913026,26.85177 C23.8629556,25.8492048 22.5526276,24.9545849 21.1694885,24.1885693 C21.2990979,23.485898 21.4599121,22.794719 21.6397503,22.111612 C22.1325946,20.2318022 22.8086986,18.4287444 23.6493122,16.7333584 C25.4252487,13.1503643 27.923549,10.0447105 30.9571211,7.716291 C31.3967256,9.12560112 32.3488826,10.3064336 33.5926951,11.0494647 C34.4835375,11.5813934 35.5228764,11.8901803 36.6359845,11.8901803 C38.281901,11.8901803 39.7709722,11.2219858 40.8483591,10.1419845 C47.3334835,14.1980778 51.6861428,21.3471013 51.8340919,29.5073092 C51.8372397,29.6502788 51.8484625,29.7910593 51.8484625,29.9344392 C51.8484625,39.0788795 46.5563744,47.0073263 38.8750659,50.8319321 M29.503908,50.0407429 C26.1199661,46.9924137 23.5411903,42.9282485 22.0700481,38.3462462 C21.1745524,35.5548517 20.6889619,32.5721928 20.6854034,29.5078565 C20.6854034,29.4977323 20.684856,29.4873345 20.684856,29.4777576 C20.684856,28.2512296 20.765879,27.039751 20.915881,25.847563 C21.7852359,26.356644 22.6196906,26.9240073 23.4223931,27.534877 C29.5125303,32.1721517 33.5844833,39.6329719 33.930884,48.1123645 C33.9144604,48.1118172 33.8984474,48.109765 33.8821607,48.109765 C33.0292294,48.109765 32.2209156,48.2919999 31.4884239,48.6162465 C30.7312969,48.9515751 30.0571089,49.4390396 29.503908,50.0407429 M27.9948547,53.2559839 C15.3595101,52.9820843 5.16361467,42.6295858 5.16361467,29.9344392 C5.16361467,29.6891336 5.17429,29.4464275 5.18195433,29.2027636 C5.43296138,29.2349147 5.68711629,29.2574888 5.94729317,29.2574888 C6.63325137,29.2574888 7.2893734,29.1355885 7.9021098,28.9220235 C10.2256358,28.1130485 11.8950927,25.9100865 11.8950927,23.3124192 C11.8950927,23.1255327 11.8844174,22.9411089 11.8668989,22.758874 C13.760264,22.9989807 15.5869767,23.4685228 17.3276025,24.1332968 C18.0447655,24.4077436 18.7485159,24.7113315 19.4339266,25.0514485 C19.2219256,26.5005712 19.1112033,27.9793823 19.1112033,29.4777576 C19.1112033,29.4873345 19.1117507,29.4966378 19.1117507,29.5063515 C19.1117507,29.5688751 19.1164041,29.6308513 19.1164041,29.693238 C19.1210574,30.3199781 19.1481563,30.9427506 19.1901733,31.5623764 C19.332511,33.6546568 19.6849337,35.6993262 20.2310177,37.6656018 C21.7267953,43.048507 24.6518349,47.8353183 28.5960946,51.3384137 C28.2923952,51.9272566 28.086553,52.5730136 27.9948547,53.2559839 M29.7814665,6.63683688 C27.055289,8.77987482 24.7496921,11.5164073 22.983336,14.6446352 C21.6242848,17.0524062 20.5869988,19.6915279 19.9314242,22.4792284 C19.8560126,22.7988234 19.7812854,23.1188289 19.7157279,23.4423915 C19.5415011,23.3594828 19.3633052,23.2836885 19.1870255,23.204337 C16.7738541,22.1248829 14.185361,21.4049732 11.4745122,21.126422 C10.9192583,19.7232685 9.84652483,18.5864897 8.49021084,17.9433321 C10.5924291,14.4489927 13.589185,11.5548517 17.1544706,9.56080309 C20.5169249,7.68058282 24.3859098,6.60058146 28.5060386,6.60058146 C28.9342835,6.60058146 29.3593805,6.61385231 29.7814665,6.63683688 M53.4221152,29.9344392 C53.4221152,21.0853781 48.7775268,13.3045525 41.8010636,8.88535759 C42.2965083,8.01741629 42.5837841,7.01580874 42.5837841,5.94511065 C42.5837841,2.66173684 39.9211111,4.10438828e-05 36.6359845,4.10438828e-05 C33.6274584,4.10438828e-05 31.147224,2.23515409 30.7507314,5.13339946 C30.010028,5.06690837 29.2631656,5.02750624 28.5060386,5.02750624 C19.3130765,5.02750624 11.272639,10.0339022 6.95433236,17.458467 C6.62654507,17.4021001 6.29150404,17.3668023 5.94729317,17.3668023 C2.662714,17.3668023 4.10589505e-05,20.0284981 4.10589505e-05,23.3124192 C4.10589505e-05,25.7698533 1.49171273,27.8780039 3.61856636,28.7838424 C3.60118474,29.1652769 3.58996196,29.5489004 3.58996196,29.9344392 C3.58996196,43.4956117 14.4897447,54.5525601 27.9906119,54.8290591 C28.3708178,57.745911 30.8603588,60.000041 33.8821607,60.000041 C37.1672873,60.000041 39.8299603,57.3382084 39.8299603,54.0548346 C39.8299603,53.4265896 39.7305976,52.8218764 39.550212,52.2534186 C47.7617283,48.1752984 53.4221152,39.7052092 53.4221152,29.9344392" id="Fill-7" fill="#002D70" mask="url(#mask-2)"></path><path d="M119.404738,23.3574307 C117.551337,23.3574307 116.008479,24.0020932 114.776026,25.291008 C113.544531,26.5793754 112.926731,28.2271505 112.926731,30.2365222 C112.926731,32.3037658 113.535361,33.9787666 114.754538,35.2589253 C115.972621,36.5411362 117.516574,37.1801895 119.383251,37.1801895 C121.248833,37.1801895 122.803051,36.5334747 124.043715,35.2374457 C125.28438,33.9419639 125.903275,32.2755823 125.903275,30.2365222 C125.903275,28.1985566 125.294645,26.5435305 124.075468,25.2684338 C122.859438,23.9955262 121.301114,23.3574307 119.404738,23.3574307 M119.306334,17.7461846 C121.548015,17.7461846 123.657487,18.3073913 125.630781,19.4267948 C127.603937,20.5492082 129.144742,22.0690632 130.249228,23.9914218 C131.357683,25.912686 131.909926,27.9864966 131.909926,30.2150426 C131.909926,32.456449 131.352619,34.5537914 130.238964,36.5043335 C129.125308,38.4552861 127.608043,39.9807504 125.686073,41.0785375 C123.764104,42.1779663 121.642314,42.7279543 119.328916,42.7279543 C115.920339,42.7279543 113.010765,41.5159284 110.600057,39.0922872 C108.190444,36.6675514 106.984543,33.7237473 106.984543,30.2590964 C106.984543,26.5461299 108.348247,23.4526525 111.071414,20.9778431 C113.458444,18.8235866 116.203098,17.7461846 119.306334,17.7461846" id="Fill-8" fill="#002D70" mask="url(#mask-2)"></path><path d="M148.07775,23.2488969 C146.19985,23.2488969 144.639473,23.8900024 143.401957,25.1712556 C142.165398,26.452372 141.545408,28.1262783 141.545408,30.1925642 C141.545408,32.3037247 142.165398,34.0115607 143.401957,35.3141567 C144.639473,36.6168896 146.19985,37.268256 148.07775,37.268256 C149.897346,37.268256 151.428981,36.6056709 152.675805,35.2824161 C153.920575,33.9562883 154.54344,32.268427 154.54344,30.2150015 C154.54344,28.1781305 153.931798,26.5061395 152.708515,25.2034066 C151.486327,23.9002634 149.940321,23.2488969 148.07775,23.2488969 L148.07775,23.2488969 Z M141.806816,9.18548415 L141.806816,20.9778021 C142.885572,19.8999897 144.051509,19.0929302 145.303397,18.5532031 C146.555284,18.0155283 147.895448,17.7461436 149.323615,17.7461436 C152.424798,17.7461436 155.059824,18.9172624 157.230748,21.2610049 C159.400714,23.6062524 160.484533,26.6121695 160.484533,30.2805349 C160.484533,33.8179704 159.364855,36.7777816 157.120026,39.1568218 C154.878481,41.5379143 152.220872,42.7279133 149.147336,42.7279133 C147.778567,42.7279133 146.503139,42.4842494 145.324884,41.9962376 C144.145671,41.5082259 142.973712,40.7119746 141.806816,39.6048842 L141.806816,42.1164962 L135.888169,42.1164962 L135.888169,9.18548415 L141.806816,9.18548415 Z" id="Fill-9" fill="#002D70" mask="url(#mask-2)"></path><path d="M175.799987,23.2488969 C173.954934,23.2488969 172.425352,23.9002634 171.207133,25.2034066 C169.987956,26.5061395 169.376314,28.1781305 169.376314,30.2150015 C169.376314,32.268427 169.99822,33.9562883 171.23998,35.2824161 C172.47955,36.6056709 174.008174,37.268256 175.821474,37.268256 C177.695405,37.268256 179.248528,36.6168896 180.481939,35.3141567 C181.714529,34.0115607 182.332329,32.3037247 182.332329,30.1925642 C182.332329,28.1262783 181.714529,26.452372 180.481939,25.1712556 C179.248528,23.8900024 177.686098,23.2488969 175.799987,23.2488969 L175.799987,23.2488969 Z M182.071057,18.3576974 L188.033638,18.3576974 L188.033638,42.1164962 L182.071057,42.1164962 L182.071057,39.6048842 C180.90512,40.7119746 179.738224,41.5082259 178.568181,41.9962376 C177.395264,42.4842494 176.128869,42.7279133 174.7601,42.7279133 C171.69067,42.7279133 169.035251,41.5379143 166.794527,39.1568218 C164.554898,36.7777816 163.435221,33.8179704 163.435221,30.2805349 C163.435221,26.6121695 164.519177,23.6062524 166.685995,21.2610049 C168.855823,18.9172624 171.486881,17.7461436 174.586011,17.7461436 C176.008977,17.7461436 177.349141,18.0155283 178.599934,18.5532031 C179.851958,19.0929302 181.00763,19.8999897 182.071057,20.9778021 L182.071057,18.3576974 Z" id="Fill-10" fill="#002D70" mask="url(#mask-2)"></path><polygon id="Fill-11" fill="#002D70" mask="url(#mask-2)" points="192.959549 42.1164962 198.923224 42.1164962 198.923224 9.18548415 192.959549 9.18548415"></polygon><path d="M215.755943,20.6931765 C214.022434,20.6931765 212.412924,21.1125081 210.927411,21.9492561 C209.441898,22.7869617 208.277056,23.9437152 207.433842,25.4211581 C206.587617,26.8988747 206.164436,28.4975339 206.164436,30.2150836 C206.164436,32.8204125 207.040497,34.9752163 208.786186,36.6793583 C210.535024,38.3825427 212.800246,39.2340664 215.580758,39.2340664 C218.392065,39.2340664 220.653181,38.3886993 222.364108,36.7009748 C224.073939,35.0121558 224.930429,32.7927763 224.930429,30.0399631 C224.930429,28.2497657 224.537084,26.6520642 223.752311,25.246448 C222.96439,23.8417895 221.850734,22.7327838 220.408333,21.9165578 C218.967848,21.1012895 217.416641,20.6931765 215.755943,20.6931765 L215.755943,20.6931765 Z M224.777827,18.3576427 L227.836992,18.3576427 L227.836992,37.2898177 C227.836992,40.6243595 227.543968,43.0618189 226.962026,44.6061634 C226.159871,46.7891507 224.769615,48.4718131 222.789205,49.6500462 C220.807837,50.829921 218.427923,51.4193111 215.647411,51.4193111 C213.607465,51.4193111 211.775689,51.1309095 210.150849,50.5543797 C208.529021,49.9773027 207.205417,49.2034887 206.188113,48.2315696 C205.168619,47.2607449 204.228096,45.8407634 203.369553,43.9732668 L206.691085,43.9732668 C207.592603,45.544837 208.760593,46.709252 210.18876,47.4670589 C211.616927,48.2224031 213.3904,48.6023327 215.504936,48.6023327 C217.588815,48.6023327 219.348875,48.2126894 220.787307,47.4379177 C222.221633,46.6616411 223.247149,45.6861648 223.85879,44.5099839 C224.472485,43.3347607 224.777827,41.4385334 224.777827,38.8177446 L224.777827,37.5960051 C223.62626,39.0523788 222.21958,40.1701406 220.55683,40.9475117 C218.893942,41.7267982 217.131829,42.1165783 215.266247,42.1165783 C213.077942,42.1165783 211.022668,41.5747991 209.098645,40.490146 C207.173665,39.4056299 205.688152,37.9451517 204.638001,36.1110374 C203.58785,34.277744 203.064348,32.261258 203.064348,30.0624004 C203.064348,27.8636796 203.610295,25.8143585 204.703558,23.9151213 C205.796684,22.0147895 207.309843,20.5123097 209.24112,19.4053562 C211.173354,18.3003181 213.210015,17.7462257 215.352334,17.7462257 C217.131829,17.7462257 218.79061,18.113842 220.329363,18.8492116 C221.865105,19.5840339 223.347606,20.7960598 224.777827,22.4848787 L224.777827,18.3576427 Z" id="Fill-12" fill="#002D70" mask="url(#mask-2)"></path></g></g></g></g></svg> 