<svg id="Layer_1" data-name="Layer 1" xmlns="http://www.w3.org/2000/svg" viewBox="0 0 377.16 105.6">
  <defs>
    <style>
      .cls-1 {
        fill: #fff;
      }
    </style>
  </defs>
  <title>Metialogo</title>
  <g>
    <path class="cls-1" d="M122.58,45.67c0,.84,0,1.8-.06,2.8a15.63,15.63,0,0,1-.36,2.68l-10.43,49.38a4.56,4.56,0,0,1-1.31,2.14,3.69,3.69,0,0,1-2.62.93h-19c-2.06,0-3.07-1-3.07-3.07a7.51,7.51,0,0,1,.3-1.72L96.52,50a8.56,8.56,0,0,0,.28-1.88V46.51c0-4.13-2.28-6.23-6.82-6.23-3.09,0-5.4.87-7,2.62a15.87,15.87,0,0,0-3.31,7L68.83,100.54a4.24,4.24,0,0,1-1.31,2.14,3.68,3.68,0,0,1-2.6.93H46.07c-2.12,0-3.21-1-3.21-3.07a7.06,7.06,0,0,1,.35-1.72L53.62,50a6.63,6.63,0,0,0,.3-1.88V46.51c0-4.13-2.28-6.23-6.82-6.23-3,0-5.29.73-6.8,2.12a10.63,10.63,0,0,0-3.19,6.15l-11.18,52a4.38,4.38,0,0,1-1.31,2.14,3.69,3.69,0,0,1-2.61.93H3.19c-2.14,0-3.19-1-3.19-3.07a7.09,7.09,0,0,1,.28-1.72L12.61,40.71a12.87,12.87,0,0,1,2.6-6.05A16.48,16.48,0,0,1,21,31.14a65.56,65.56,0,0,1,11.54-3.23,71.83,71.83,0,0,1,14.28-1.37A43.76,43.76,0,0,1,62,28.79,23.12,23.12,0,0,1,71,34.37a40.91,40.91,0,0,1,11.85-5.75,54.9,54.9,0,0,1,15.95-2.08A31.73,31.73,0,0,1,108,27.84a23.76,23.76,0,0,1,7.6,3.83,19.51,19.51,0,0,1,5.14,6.09,16.67,16.67,0,0,1,1.87,7.91"/>
    <path class="cls-1" d="M199.5,51.2a26.23,26.23,0,0,1-.2,3.53,34.35,34.35,0,0,1-.8,3.57,8.33,8.33,0,0,1-2.59,4.26,9.87,9.87,0,0,1-4.66,1.82L152,70.44v2.48a10.11,10.11,0,0,0,.28,2.3,14.22,14.22,0,0,0,4.22,7.58q3.17,2.94,9.68,2.95a17.94,17.94,0,0,0,9.76-2.66A43.35,43.35,0,0,0,183,77.78a8.87,8.87,0,0,1,2.82-1.87,8.11,8.11,0,0,1,3.25-.73,5,5,0,0,1,3.41,1.37A4.36,4.36,0,0,1,194,79.82a17.48,17.48,0,0,1-2.39,8,29.82,29.82,0,0,1-7,8.47,40.43,40.43,0,0,1-11,6.66,37.52,37.52,0,0,1-14.57,2.68,38,38,0,0,1-12.91-2.1,27.83,27.83,0,0,1-9.85-6,26.71,26.71,0,0,1-6.21-9.42,33,33,0,0,1-2.18-12.46,62.34,62.34,0,0,1,3.17-19.33,43.35,43.35,0,0,1,10.16-17,38.9,38.9,0,0,1,14.28-9.8,46.13,46.13,0,0,1,16.72-2.95,31,31,0,0,1,10.93,1.88,26.61,26.61,0,0,1,8.61,5.16,22.66,22.66,0,0,1,5.63,7.75,23.29,23.29,0,0,1,2,9.86m-23.62-1.94a12,12,0,0,0-1.65-6.46c-1.11-1.77-3.14-2.68-6-2.68a10.1,10.1,0,0,0-5.74,1.68A17.34,17.34,0,0,0,158.07,46,23.26,23.26,0,0,0,155,51.72,54,54,0,0,0,153,58l22.33-3.61a16.53,16.53,0,0,0,.43-2.54,18.94,18.94,0,0,0,.14-2.54"/>
    <path class="cls-1" d="M257.39,31.55a8.3,8.3,0,0,1-.26,1.78l-1.33,6.21a4,4,0,0,1-1.3,2.08,3.65,3.65,0,0,1-2.6.95H241.29l-8.55,40.68a18.06,18.06,0,0,0-.42,3.61c0,2.22.59,3.69,1.75,4.44a8.43,8.43,0,0,0,4.48,1.07c.48,0,.9,0,1.31,0a5.35,5.35,0,0,1,1.13-.1,3.44,3.44,0,0,1,2.86,1.17,4.53,4.53,0,0,1,1,2.91,6.1,6.1,0,0,1-1.52,4.06,11.18,11.18,0,0,1-4.09,2.91,22.92,22.92,0,0,1-5.77,1.75,39.25,39.25,0,0,1-6.76.58,35.67,35.67,0,0,1-6.88-.73,18.76,18.76,0,0,1-6.59-2.68,15.32,15.32,0,0,1-5-5.23,16,16,0,0,1-2-8.47,30,30,0,0,1,.18-3,15.76,15.76,0,0,1,.42-2.88l8.53-40h-6.21c-2.06,0-3.07-1.07-3.07-3.17a3.33,3.33,0,0,1,.06-.83c.08-.24.18-.48.28-.79l1.31-6.23a4.4,4.4,0,0,1,1.23-2.06,3.39,3.39,0,0,1,2.52-1h6.8l1.92-8.67A8.94,8.94,0,0,1,221.24,17a4.41,4.41,0,0,1,2.12-1.61L243,8.15c.47-.2.89-.34,1.21-.48a2.92,2.92,0,0,1,1.23-.24c1.85,0,2.78.76,2.78,2.32v.73a1.63,1.63,0,0,1-.16.58l-3.77,17.47h10c2,0,3,1,3,3"/>
    <path class="cls-1" d="M294.95,31.55a9,9,0,0,1-.28,1.78l-14.36,67.21a4.41,4.41,0,0,1-1.31,2.14,3.76,3.76,0,0,1-2.62.93H257.27c-2,0-3-1-3-3.07a7.51,7.51,0,0,1,.3-1.72l14.2-67.27A4.15,4.15,0,0,1,270,29.49a3.73,3.73,0,0,1,2.65-1h19.12c2.12,0,3.19,1,3.19,3m5.43-22.71c0,3.09-1.4,5.81-4.14,8.19s-6.56,3.53-11.41,3.53c-3.73,0-6.74-.91-8.94-2.74a8.21,8.21,0,0,1-3.23-6.38,10,10,0,0,1,4.2-8.11c2.8-2.22,6.6-3.33,11.32-3.33,3.79,0,6.74.87,8.93,2.62a7.74,7.74,0,0,1,3.27,6.21"/>
    <path class="cls-1" d="M376.95,82.06a3.79,3.79,0,0,0-2.56-2.62c-1.45-.26-2.78,1.17-4.66,1.69s-2.54-1.41-2.7-2.24a10,10,0,0,1,.24-2.28l.26-1.31c.12-.41.18-.64.18-.64l0,0L374.4,42.9c.2-.79.35-1.53.46-2.24s.14-1.37.14-2a7.49,7.49,0,0,0-.83-3.77,8.94,8.94,0,0,0-3.27-3,32.33,32.33,0,0,0-9-3.65c-4.05-1.15-9.43-1.71-16.09-1.71A51.15,51.15,0,0,0,328,29.49a47.56,47.56,0,0,0-14.58,8.61,51,51,0,0,0-12.65,17.39,51.88,51.88,0,0,0-4.58,21.44,30.87,30.87,0,0,0,2.1,11.44,24.14,24.14,0,0,0,6.34,9,28.78,28.78,0,0,0,10.55,6,45.6,45.6,0,0,0,14.94,2.2c2,0,4-.1,5.92-.24v0a3.36,3.36,0,0,1,.44-.06,64.64,64.64,0,0,0,9.48-1.35,48.18,48.18,0,0,0,8.71-2.58c12.85-4.6,19.24-11.44,20.9-13.68,2.22-3.13,1.53-4.9,1.39-5.67M325.27,86.7c-1.8-2-2.72-5.24-2.72-9.8a47.84,47.84,0,0,1,.65-7.36,52.74,52.74,0,0,1,1.89-8.11c.82-2.7,1.76-5.32,2.78-7.85a35.84,35.84,0,0,1,3.49-6.37,17.51,17.51,0,0,1,5.57-5.41,11.18,11.18,0,0,1,5.57-1.68c2.13,0,3.59.34,4.33,1.09A3.7,3.7,0,0,1,348,44a15.83,15.83,0,0,1-.29,2L339,87a5.14,5.14,0,0,1-2.54,1.9,12,12,0,0,1-4.3.73,9.14,9.14,0,0,1-6.94-3"/>
  </g>
</svg>
